<svg xmlns="http://www.w3.org/2000/svg" width="1200" height="420" viewBox="0 0 1200 420"><rect width="1200" height="420" fill="#07111f"/><style>text{font-family:Inter,Arial,sans-serif;fill:#e8f0fb}.title{font-size:28px;font-weight:700}.h{font-size:18px;font-weight:700}.s{font-size:13px;fill:#9fb2c8}.box{fill:#0d1b2d;stroke:#2b4968;stroke-width:2}.line{stroke:#55c7ff;stroke-width:4;fill:none;marker-end:url(#a)}</style><defs><marker id="a" markerWidth="12" markerHeight="12" refX="10" refY="4" orient="auto"><path d="M0,0 L0,8 L11,4 z" fill="#55c7ff"/></marker></defs><text x="600" y="45" text-anchor="middle" class="title">Dana + Tailscale Funnel</text><rect x="55" y="120" width="235" height="125" rx="18" class="box"/><text x="172" y="160" text-anchor="middle" class="h">AI Client</text><text x="172" y="190" text-anchor="middle" class="s">HTTPS MCP request</text><text x="172" y="214" text-anchor="middle" class="s">ChatGPT / Claude / Grok</text><rect x="395" y="100" width="270" height="165" rx="18" class="box"/><text x="530" y="145" text-anchor="middle" class="h">Tailscale Funnel</text><text x="530" y="175" text-anchor="middle" class="s">Public HTTPS endpoint</text><text x="530" y="199" text-anchor="middle" class="s">TLS + relay network</text><text x="530" y="223" text-anchor="middle" class="s">*.ts.net</text><rect x="770" y="120" width="300" height="125" rx="18" class="box"/><text x="920" y="160" text-anchor="middle" class="h">Dana localhost</text><text x="920" y="190" text-anchor="middle" class="s">127.0.0.1:8765</text><text x="920" y="214" text-anchor="middle" class="s">/mcp + OAuth discovery</text><path d="M290 182 H395" class="line"/><path d="M665 182 H770" class="line"/><rect x="270" y="310" width="660" height="55" rx="12" fill="#10243a" stroke="#2b4968"/><text x="600" y="345" text-anchor="middle" class="s">First-time: tailscale funnel 8765 → approve Funnel → verify with tailscale funnel status</text></svg>